<svg xmlns="http://www.w3.org/2000/svg" width="28" height="28" viewBox="0 0 28 28"><path d="M15.333,18.444H12.222v3.111h3.111Zm6.222,6.222H18.444v3.111h3.111ZM15.333,6H12.222V9.111h3.111Zm6.222,12.444H18.444v3.111h3.111ZM9.111,6H6V9.111H9.111Zm12.444,6.222H18.444v3.111h3.111Zm6.222,6.222H24.667v3.111h3.111ZM21.556,6H18.444V9.111h3.111Zm6.222,0H24.667V9.111h3.111Zm3.111,15.556H34V18.444H30.889Zm0,6.222H34V24.667H30.889ZM9.111,12.222H6v3.111H9.111ZM30.889,6V9.111H34V6Zm0,9.333H34V12.222H30.889ZM9.111,18.444H6v3.111H9.111ZM6,34H34V30.889H6Zm3.111-9.333H6v3.111H9.111Z" transform="translate(-6 34) rotate(-90)" fill="#2699fb"/></svg>